# Original low-poly human proxy; units: meters; CC0.
# Generated by generate_low_poly_person.py.
v -0.150000 -0.110000 0.820000
v 0.150000 -0.110000 0.820000
v 0.150000 0.110000 0.820000
v -0.150000 0.110000 0.820000
v -0.210000 -0.125000 1.420000
v 0.210000 -0.125000 1.420000
v 0.210000 0.125000 1.420000
v -0.210000 0.125000 1.420000
v -0.160000 -0.110000 0.720000
v 0.160000 -0.110000 0.720000
v 0.160000 0.110000 0.720000
v -0.160000 0.110000 0.720000
v -0.150000 -0.110000 0.880000
v 0.150000 -0.110000 0.880000
v 0.150000 0.110000 0.880000
v -0.150000 0.110000 0.880000
v -0.065000 0.000000 1.400000
v -0.052586 -0.038206 1.400000
v -0.020086 -0.061819 1.400000
v 0.020086 -0.061819 1.400000
v 0.052586 -0.038206 1.400000
v 0.065000 -0.000000 1.400000
v 0.052586 0.038206 1.400000
v 0.020086 0.061819 1.400000
v -0.020086 0.061819 1.400000
v -0.052586 0.038206 1.400000
v -0.065000 0.000000 1.520000
v -0.052586 -0.038206 1.520000
v -0.020086 -0.061819 1.520000
v 0.020086 -0.061819 1.520000
v 0.052586 -0.038206 1.520000
v 0.065000 -0.000000 1.520000
v 0.052586 0.038206 1.520000
v 0.020086 0.061819 1.520000
v -0.020086 0.061819 1.520000
v -0.052586 0.038206 1.520000
v 0.000000 0.000000 1.400000
v 0.000000 0.000000 1.520000
v 0.000000 0.000000 1.810000
v 0.075000 0.000000 1.785885
v 0.064952 0.032500 1.785885
v 0.037500 0.056292 1.785885
v 0.000000 0.065000 1.785885
v -0.037500 0.056292 1.785885
v -0.064952 0.032500 1.785885
v -0.075000 0.000000 1.785885
v -0.064952 -0.032500 1.785885
v -0.037500 -0.056292 1.785885
v -0.000000 -0.065000 1.785885
v 0.037500 -0.056292 1.785885
v 0.064952 -0.032500 1.785885
v 0.129904 0.000000 1.720000
v 0.112500 0.056292 1.720000
v 0.064952 0.097500 1.720000
v 0.000000 0.112583 1.720000
v -0.064952 0.097500 1.720000
v -0.112500 0.056292 1.720000
v -0.129904 0.000000 1.720000
v -0.112500 -0.056292 1.720000
v -0.064952 -0.097500 1.720000
v -0.000000 -0.112583 1.720000
v 0.064952 -0.097500 1.720000
v 0.112500 -0.056292 1.720000
v 0.150000 0.000000 1.630000
v 0.129904 0.065000 1.630000
v 0.075000 0.112583 1.630000
v 0.000000 0.130000 1.630000
v -0.075000 0.112583 1.630000
v -0.129904 0.065000 1.630000
v -0.150000 0.000000 1.630000
v -0.129904 -0.065000 1.630000
v -0.075000 -0.112583 1.630000
v -0.000000 -0.130000 1.630000
v 0.075000 -0.112583 1.630000
v 0.129904 -0.065000 1.630000
v 0.129904 0.000000 1.540000
v 0.112500 0.056292 1.540000
v 0.064952 0.097500 1.540000
v 0.000000 0.112583 1.540000
v -0.064952 0.097500 1.540000
v -0.112500 0.056292 1.540000
v -0.129904 0.000000 1.540000
v -0.112500 -0.056292 1.540000
v -0.064952 -0.097500 1.540000
v -0.000000 -0.112583 1.540000
v 0.064952 -0.097500 1.540000
v 0.112500 -0.056292 1.540000
v 0.075000 0.000000 1.474115
v 0.064952 0.032500 1.474115
v 0.037500 0.056292 1.474115
v 0.000000 0.065000 1.474115
v -0.037500 0.056292 1.474115
v -0.064952 0.032500 1.474115
v -0.075000 0.000000 1.474115
v -0.064952 -0.032500 1.474115
v -0.037500 -0.056292 1.474115
v -0.000000 -0.065000 1.474115
v 0.037500 -0.056292 1.474115
v 0.064952 -0.032500 1.474115
v 0.000000 0.000000 1.450000
v -0.179472 0.000000 1.324490
v -0.192941 -0.044084 1.329362
v -0.228206 -0.071329 1.342117
v -0.271794 -0.071329 1.357883
v -0.307059 -0.044084 1.370638
v -0.320528 -0.000000 1.375510
v -0.307059 0.044084 1.370638
v -0.271794 0.071329 1.357883
v -0.228206 0.071329 1.342117
v -0.192941 0.044084 1.329362
v -0.349472 0.000000 0.854490
v -0.362941 -0.044084 0.859362
v -0.398206 -0.071329 0.872117
v -0.441794 -0.071329 0.887883
v -0.477059 -0.044084 0.900638
v -0.490528 -0.000000 0.905510
v -0.477059 0.044084 0.900638
v -0.441794 0.071329 0.887883
v -0.398206 0.071329 0.872117
v -0.362941 0.044084 0.859362
v -0.250000 0.000000 1.350000
v -0.420000 0.000000 0.880000
v -0.420000 0.000000 0.930000
v -0.381794 0.000000 0.914721
v -0.389091 0.022457 0.914721
v -0.408194 0.036336 0.914721
v -0.431806 0.036336 0.914721
v -0.450909 0.022457 0.914721
v -0.458206 0.000000 0.914721
v -0.450909 -0.022457 0.914721
v -0.431806 -0.036336 0.914721
v -0.408194 -0.036336 0.914721
v -0.389091 -0.022457 0.914721
v -0.358181 0.000000 0.874721
v -0.369988 0.036336 0.874721
v -0.400897 0.058793 0.874721
v -0.439103 0.058793 0.874721
v -0.470012 0.036336 0.874721
v -0.481819 0.000000 0.874721
v -0.470012 -0.036336 0.874721
v -0.439103 -0.058793 0.874721
v -0.400897 -0.058793 0.874721
v -0.369988 -0.036336 0.874721
v -0.358181 0.000000 0.825279
v -0.369988 0.036336 0.825279
v -0.400897 0.058793 0.825279
v -0.439103 0.058793 0.825279
v -0.470012 0.036336 0.825279
v -0.481819 0.000000 0.825279
v -0.470012 -0.036336 0.825279
v -0.439103 -0.058793 0.825279
v -0.400897 -0.058793 0.825279
v -0.369988 -0.036336 0.825279
v -0.381794 0.000000 0.785279
v -0.389091 0.022457 0.785279
v -0.408194 0.036336 0.785279
v -0.431806 0.036336 0.785279
v -0.450909 0.022457 0.785279
v -0.458206 0.000000 0.785279
v -0.450909 -0.022457 0.785279
v -0.431806 -0.036336 0.785279
v -0.408194 -0.036336 0.785279
v -0.389091 -0.022457 0.785279
v -0.420000 0.000000 0.770000
v -0.010181 0.000000 0.744297
v -0.027335 -0.052901 0.745386
v -0.072244 -0.085595 0.748238
v -0.127756 -0.085595 0.751762
v -0.172665 -0.052901 0.754614
v -0.189819 -0.000000 0.755703
v -0.172665 0.052901 0.754614
v -0.127756 0.085595 0.751762
v -0.072244 0.085595 0.748238
v -0.027335 0.052901 0.745386
v -0.050181 0.000000 0.114297
v -0.067335 -0.052901 0.115386
v -0.112244 -0.085595 0.118238
v -0.167756 -0.085595 0.121762
v -0.212665 -0.052901 0.124614
v -0.229819 -0.000000 0.125703
v -0.212665 0.052901 0.124614
v -0.167756 0.085595 0.121762
v -0.112244 0.085595 0.118238
v -0.067335 0.052901 0.115386
v -0.100000 0.000000 0.750000
v -0.140000 0.000000 0.120000
v -0.245000 -0.100000 0.000000
v -0.055000 -0.100000 0.000000
v -0.055000 0.200000 0.000000
v -0.245000 0.200000 0.000000
v -0.240000 -0.065000 0.130000
v -0.060000 -0.065000 0.130000
v -0.060000 0.165000 0.130000
v -0.240000 0.165000 0.130000
v 0.320528 0.000000 1.375510
v 0.307059 -0.044084 1.370638
v 0.271794 -0.071329 1.357883
v 0.228206 -0.071329 1.342117
v 0.192941 -0.044084 1.329362
v 0.179472 -0.000000 1.324490
v 0.192941 0.044084 1.329362
v 0.228206 0.071329 1.342117
v 0.271794 0.071329 1.357883
v 0.307059 0.044084 1.370638
v 0.490528 0.000000 0.905510
v 0.477059 -0.044084 0.900638
v 0.441794 -0.071329 0.887883
v 0.398206 -0.071329 0.872117
v 0.362941 -0.044084 0.859362
v 0.349472 -0.000000 0.854490
v 0.362941 0.044084 0.859362
v 0.398206 0.071329 0.872117
v 0.441794 0.071329 0.887883
v 0.477059 0.044084 0.900638
v 0.250000 0.000000 1.350000
v 0.420000 0.000000 0.880000
v 0.420000 0.000000 0.930000
v 0.458206 0.000000 0.914721
v 0.450909 0.022457 0.914721
v 0.431806 0.036336 0.914721
v 0.408194 0.036336 0.914721
v 0.389091 0.022457 0.914721
v 0.381794 0.000000 0.914721
v 0.389091 -0.022457 0.914721
v 0.408194 -0.036336 0.914721
v 0.431806 -0.036336 0.914721
v 0.450909 -0.022457 0.914721
v 0.481819 0.000000 0.874721
v 0.470012 0.036336 0.874721
v 0.439103 0.058793 0.874721
v 0.400897 0.058793 0.874721
v 0.369988 0.036336 0.874721
v 0.358181 0.000000 0.874721
v 0.369988 -0.036336 0.874721
v 0.400897 -0.058793 0.874721
v 0.439103 -0.058793 0.874721
v 0.470012 -0.036336 0.874721
v 0.481819 0.000000 0.825279
v 0.470012 0.036336 0.825279
v 0.439103 0.058793 0.825279
v 0.400897 0.058793 0.825279
v 0.369988 0.036336 0.825279
v 0.358181 0.000000 0.825279
v 0.369988 -0.036336 0.825279
v 0.400897 -0.058793 0.825279
v 0.439103 -0.058793 0.825279
v 0.470012 -0.036336 0.825279
v 0.458206 0.000000 0.785279
v 0.450909 0.022457 0.785279
v 0.431806 0.036336 0.785279
v 0.408194 0.036336 0.785279
v 0.389091 0.022457 0.785279
v 0.381794 0.000000 0.785279
v 0.389091 -0.022457 0.785279
v 0.408194 -0.036336 0.785279
v 0.431806 -0.036336 0.785279
v 0.450909 -0.022457 0.785279
v 0.420000 0.000000 0.770000
v 0.189819 0.000000 0.755703
v 0.172665 -0.052901 0.754614
v 0.127756 -0.085595 0.751762
v 0.072244 -0.085595 0.748238
v 0.027335 -0.052901 0.745386
v 0.010181 -0.000000 0.744297
v 0.027335 0.052901 0.745386
v 0.072244 0.085595 0.748238
v 0.127756 0.085595 0.751762
v 0.172665 0.052901 0.754614
v 0.229819 0.000000 0.125703
v 0.212665 -0.052901 0.124614
v 0.167756 -0.085595 0.121762
v 0.112244 -0.085595 0.118238
v 0.067335 -0.052901 0.115386
v 0.050181 -0.000000 0.114297
v 0.067335 0.052901 0.115386
v 0.112244 0.085595 0.118238
v 0.167756 0.085595 0.121762
v 0.212665 0.052901 0.124614
v 0.100000 0.000000 0.750000
v 0.140000 0.000000 0.120000
v 0.055000 -0.100000 0.000000
v 0.245000 -0.100000 0.000000
v 0.245000 0.200000 0.000000
v 0.055000 0.200000 0.000000
v 0.060000 -0.065000 0.130000
v 0.240000 -0.065000 0.130000
v 0.240000 0.165000 0.130000
v 0.060000 0.165000 0.130000
f 1 3 2
f 1 4 3
f 5 6 7
f 5 7 8
f 1 2 6
f 1 6 5
f 2 3 7
f 2 7 6
f 3 4 8
f 3 8 7
f 4 1 5
f 4 5 8
f 9 11 10
f 9 12 11
f 13 14 15
f 13 15 16
f 9 10 14
f 9 14 13
f 10 11 15
f 10 15 14
f 11 12 16
f 11 16 15
f 12 9 13
f 12 13 16
f 17 18 28
f 17 28 27
f 37 18 17
f 38 27 28
f 18 19 29
f 18 29 28
f 37 19 18
f 38 28 29
f 19 20 30
f 19 30 29
f 37 20 19
f 38 29 30
f 20 21 31
f 20 31 30
f 37 21 20
f 38 30 31
f 21 22 32
f 21 32 31
f 37 22 21
f 38 31 32
f 22 23 33
f 22 33 32
f 37 23 22
f 38 32 33
f 23 24 34
f 23 34 33
f 37 24 23
f 38 33 34
f 24 25 35
f 24 35 34
f 37 25 24
f 38 34 35
f 25 26 36
f 25 36 35
f 37 26 25
f 38 35 36
f 26 17 27
f 26 27 36
f 37 17 26
f 38 36 27
f 39 41 40
f 40 41 53
f 40 53 52
f 52 53 65
f 52 65 64
f 64 65 77
f 64 77 76
f 76 77 89
f 76 89 88
f 100 88 89
f 39 42 41
f 41 42 54
f 41 54 53
f 53 54 66
f 53 66 65
f 65 66 78
f 65 78 77
f 77 78 90
f 77 90 89
f 100 89 90
f 39 43 42
f 42 43 55
f 42 55 54
f 54 55 67
f 54 67 66
f 66 67 79
f 66 79 78
f 78 79 91
f 78 91 90
f 100 90 91
f 39 44 43
f 43 44 56
f 43 56 55
f 55 56 68
f 55 68 67
f 67 68 80
f 67 80 79
f 79 80 92
f 79 92 91
f 100 91 92
f 39 45 44
f 44 45 57
f 44 57 56
f 56 57 69
f 56 69 68
f 68 69 81
f 68 81 80
f 80 81 93
f 80 93 92
f 100 92 93
f 39 46 45
f 45 46 58
f 45 58 57
f 57 58 70
f 57 70 69
f 69 70 82
f 69 82 81
f 81 82 94
f 81 94 93
f 100 93 94
f 39 47 46
f 46 47 59
f 46 59 58
f 58 59 71
f 58 71 70
f 70 71 83
f 70 83 82
f 82 83 95
f 82 95 94
f 100 94 95
f 39 48 47
f 47 48 60
f 47 60 59
f 59 60 72
f 59 72 71
f 71 72 84
f 71 84 83
f 83 84 96
f 83 96 95
f 100 95 96
f 39 49 48
f 48 49 61
f 48 61 60
f 60 61 73
f 60 73 72
f 72 73 85
f 72 85 84
f 84 85 97
f 84 97 96
f 100 96 97
f 39 50 49
f 49 50 62
f 49 62 61
f 61 62 74
f 61 74 73
f 73 74 86
f 73 86 85
f 85 86 98
f 85 98 97
f 100 97 98
f 39 51 50
f 50 51 63
f 50 63 62
f 62 63 75
f 62 75 74
f 74 75 87
f 74 87 86
f 86 87 99
f 86 99 98
f 100 98 99
f 39 40 51
f 51 40 52
f 51 52 63
f 63 52 64
f 63 64 75
f 75 64 76
f 75 76 87
f 87 76 88
f 87 88 99
f 100 99 88
f 101 102 112
f 101 112 111
f 121 102 101
f 122 111 112
f 102 103 113
f 102 113 112
f 121 103 102
f 122 112 113
f 103 104 114
f 103 114 113
f 121 104 103
f 122 113 114
f 104 105 115
f 104 115 114
f 121 105 104
f 122 114 115
f 105 106 116
f 105 116 115
f 121 106 105
f 122 115 116
f 106 107 117
f 106 117 116
f 121 107 106
f 122 116 117
f 107 108 118
f 107 118 117
f 121 108 107
f 122 117 118
f 108 109 119
f 108 119 118
f 121 109 108
f 122 118 119
f 109 110 120
f 109 120 119
f 121 110 109
f 122 119 120
f 110 101 111
f 110 111 120
f 121 101 110
f 122 120 111
f 123 125 124
f 124 125 135
f 124 135 134
f 134 135 145
f 134 145 144
f 144 145 155
f 144 155 154
f 164 154 155
f 123 126 125
f 125 126 136
f 125 136 135
f 135 136 146
f 135 146 145
f 145 146 156
f 145 156 155
f 164 155 156
f 123 127 126
f 126 127 137
f 126 137 136
f 136 137 147
f 136 147 146
f 146 147 157
f 146 157 156
f 164 156 157
f 123 128 127
f 127 128 138
f 127 138 137
f 137 138 148
f 137 148 147
f 147 148 158
f 147 158 157
f 164 157 158
f 123 129 128
f 128 129 139
f 128 139 138
f 138 139 149
f 138 149 148
f 148 149 159
f 148 159 158
f 164 158 159
f 123 130 129
f 129 130 140
f 129 140 139
f 139 140 150
f 139 150 149
f 149 150 160
f 149 160 159
f 164 159 160
f 123 131 130
f 130 131 141
f 130 141 140
f 140 141 151
f 140 151 150
f 150 151 161
f 150 161 160
f 164 160 161
f 123 132 131
f 131 132 142
f 131 142 141
f 141 142 152
f 141 152 151
f 151 152 162
f 151 162 161
f 164 161 162
f 123 133 132
f 132 133 143
f 132 143 142
f 142 143 153
f 142 153 152
f 152 153 163
f 152 163 162
f 164 162 163
f 123 124 133
f 133 124 134
f 133 134 143
f 143 134 144
f 143 144 153
f 153 144 154
f 153 154 163
f 164 163 154
f 165 166 176
f 165 176 175
f 185 166 165
f 186 175 176
f 166 167 177
f 166 177 176
f 185 167 166
f 186 176 177
f 167 168 178
f 167 178 177
f 185 168 167
f 186 177 178
f 168 169 179
f 168 179 178
f 185 169 168
f 186 178 179
f 169 170 180
f 169 180 179
f 185 170 169
f 186 179 180
f 170 171 181
f 170 181 180
f 185 171 170
f 186 180 181
f 171 172 182
f 171 182 181
f 185 172 171
f 186 181 182
f 172 173 183
f 172 183 182
f 185 173 172
f 186 182 183
f 173 174 184
f 173 184 183
f 185 174 173
f 186 183 184
f 174 165 175
f 174 175 184
f 185 165 174
f 186 184 175
f 187 189 188
f 187 190 189
f 191 192 193
f 191 193 194
f 187 188 192
f 187 192 191
f 188 189 193
f 188 193 192
f 189 190 194
f 189 194 193
f 190 187 191
f 190 191 194
f 195 196 206
f 195 206 205
f 215 196 195
f 216 205 206
f 196 197 207
f 196 207 206
f 215 197 196
f 216 206 207
f 197 198 208
f 197 208 207
f 215 198 197
f 216 207 208
f 198 199 209
f 198 209 208
f 215 199 198
f 216 208 209
f 199 200 210
f 199 210 209
f 215 200 199
f 216 209 210
f 200 201 211
f 200 211 210
f 215 201 200
f 216 210 211
f 201 202 212
f 201 212 211
f 215 202 201
f 216 211 212
f 202 203 213
f 202 213 212
f 215 203 202
f 216 212 213
f 203 204 214
f 203 214 213
f 215 204 203
f 216 213 214
f 204 195 205
f 204 205 214
f 215 195 204
f 216 214 205
f 217 219 218
f 218 219 229
f 218 229 228
f 228 229 239
f 228 239 238
f 238 239 249
f 238 249 248
f 258 248 249
f 217 220 219
f 219 220 230
f 219 230 229
f 229 230 240
f 229 240 239
f 239 240 250
f 239 250 249
f 258 249 250
f 217 221 220
f 220 221 231
f 220 231 230
f 230 231 241
f 230 241 240
f 240 241 251
f 240 251 250
f 258 250 251
f 217 222 221
f 221 222 232
f 221 232 231
f 231 232 242
f 231 242 241
f 241 242 252
f 241 252 251
f 258 251 252
f 217 223 222
f 222 223 233
f 222 233 232
f 232 233 243
f 232 243 242
f 242 243 253
f 242 253 252
f 258 252 253
f 217 224 223
f 223 224 234
f 223 234 233
f 233 234 244
f 233 244 243
f 243 244 254
f 243 254 253
f 258 253 254
f 217 225 224
f 224 225 235
f 224 235 234
f 234 235 245
f 234 245 244
f 244 245 255
f 244 255 254
f 258 254 255
f 217 226 225
f 225 226 236
f 225 236 235
f 235 236 246
f 235 246 245
f 245 246 256
f 245 256 255
f 258 255 256
f 217 227 226
f 226 227 237
f 226 237 236
f 236 237 247
f 236 247 246
f 246 247 257
f 246 257 256
f 258 256 257
f 217 218 227
f 227 218 228
f 227 228 237
f 237 228 238
f 237 238 247
f 247 238 248
f 247 248 257
f 258 257 248
f 259 260 270
f 259 270 269
f 279 260 259
f 280 269 270
f 260 261 271
f 260 271 270
f 279 261 260
f 280 270 271
f 261 262 272
f 261 272 271
f 279 262 261
f 280 271 272
f 262 263 273
f 262 273 272
f 279 263 262
f 280 272 273
f 263 264 274
f 263 274 273
f 279 264 263
f 280 273 274
f 264 265 275
f 264 275 274
f 279 265 264
f 280 274 275
f 265 266 276
f 265 276 275
f 279 266 265
f 280 275 276
f 266 267 277
f 266 277 276
f 279 267 266
f 280 276 277
f 267 268 278
f 267 278 277
f 279 268 267
f 280 277 278
f 268 259 269
f 268 269 278
f 279 259 268
f 280 278 269
f 281 283 282
f 281 284 283
f 285 286 287
f 285 287 288
f 281 282 286
f 281 286 285
f 282 283 287
f 282 287 286
f 283 284 288
f 283 288 287
f 284 281 285
f 284 285 288
